# xmcd
#
# Track frame offsets:
#	150
#	22161
#	58128
#	80961
#	101324
#	117583
#	143195
#	163725
#	219936
#	239768
#
# Disc length: 3443 seconds
#
# Revision: 2
# Processed by: cddbd v1.5.2PL0 Copyright (c) Steve Scherf et al.
# Submitted via: jack 3.1.1
#
DISCID=960d710a
DTITLE=Peter Green's Fleetwood Mac - Transmission Impossible CD3
DYEAR=2019
DGENRE=Blues
TTITLE0=Before the Beginning
TTITLE1=It Takes Time
TTITLE2=Like it This Way
TTITLE3=Only You
TTITLE4=Madison Blues
TTITLE5=Oh Baby
TTITLE6=Albatross
TTITLE7=Green Manalishi
TTITLE8=World in Harmony
TTITLE9=Stranger Blues
EXTD=(The Warehouse Tapes) from a Live FM Broadcast at The Warehouse, New Orleans, Louisiana, 30 Jan 1970
EXTT0=
EXTT1=
EXTT2=
EXTT3=
EXTT4=
EXTT5=
EXTT6=
EXTT7=
EXTT8=
EXTT9=
PLAYORDER=
